<svg width="109" height="18" viewBox="0 0 109 18" fill="none" xmlns="http://www.w3.org/2000/svg">
<path fill-rule="evenodd" clip-rule="evenodd" d="M104.621 2.65853V17.4498H102.511V2.65853H98.7597V1.01506H108.372V2.65853H104.621ZM96.4973 11.3572C96.13 11.819 95.6689 12.1477 95.114 12.3433C94.5592 12.539 93.8988 12.6368 93.133 12.6368C92.7735 12.6368 92.3671 12.6133 91.9138 12.5664C91.4606 12.5194 91.0854 12.4646 90.7885 12.402V17.4498H88.6784V1.24984C89.2724 1.07766 89.8702 0.95636 90.472 0.885926C91.0737 0.815491 91.7263 0.780273 92.4296 0.780273C93.3674 0.780273 94.1645 0.8781 94.821 1.07375C95.4774 1.2694 96.0088 1.59419 96.4152 2.0481C96.8216 2.50201 97.1186 3.10462 97.3061 3.85593C97.4937 4.60723 97.5875 5.53853 97.5875 6.64984C97.5875 7.79245 97.4976 8.74723 97.3178 9.51419C97.1381 10.2811 96.8646 10.8955 96.4973 11.3572ZM95.3016 4.5368C95.1844 3.97332 95.0007 3.52723 94.7506 3.19853C94.5006 2.86984 94.1841 2.63897 93.8011 2.50593C93.4182 2.37288 92.961 2.30636 92.4296 2.30636H90.7885V10.9933H92.4296C92.961 10.9933 93.4182 10.9268 93.8011 10.7938C94.1841 10.6607 94.5006 10.4298 94.7506 10.1011C95.0007 9.77245 95.1844 9.32636 95.3016 8.76288C95.4188 8.1994 95.4774 7.49506 95.4774 6.64984C95.4774 5.80462 95.4188 5.10027 95.3016 4.5368ZM83.4034 13.2238H78.7144L77.6594 17.4498H75.5494L79.535 1.01506H82.5828L86.5684 17.4498H84.4584L83.4034 13.2238ZM81.1058 3.36288H81.012L79.0661 11.5803H83.0517L81.1058 3.36288ZM70.9776 5.24114H70.8604L67.4609 15.3368H65.3509L61.9514 5.24114H61.8342L61.1308 17.4498H59.0208L59.9586 1.01506H62.5375L66.359 12.2846H66.4528L70.2743 1.01506H72.8532L73.791 17.4498H71.681L70.9776 5.24114ZM55.2228 15.9238C54.7851 16.5655 54.2576 17.0194 53.6402 17.2855C53.0229 17.5516 52.3156 17.6846 51.5185 17.6846C50.7214 17.6846 50.0141 17.5516 49.3967 17.2855C48.7794 17.0194 48.2518 16.5655 47.8142 15.9238C47.3766 15.282 47.0444 14.4172 46.8178 13.3294C46.5912 12.2416 46.4779 10.8759 46.4779 9.23245C46.4779 7.58897 46.5912 6.22332 46.8178 5.13549C47.0444 4.04766 47.3766 3.18288 47.8142 2.54114C48.2518 1.8994 48.7794 1.44549 49.3967 1.1794C50.0141 0.913317 50.7214 0.780273 51.5185 0.780273C52.3156 0.780273 53.0229 0.913317 53.6402 1.1794C54.2576 1.44549 54.7851 1.8994 55.2228 2.54114C55.6604 3.18288 55.9925 4.04766 56.2192 5.13549C56.4458 6.22332 56.5591 7.58897 56.5591 9.23245C56.5591 10.8759 56.4458 12.2416 56.2192 13.3294C55.9925 14.4172 55.6604 15.282 55.2228 15.9238ZM54.2029 5.75766C54.0388 4.84984 53.8239 4.12984 53.5582 3.59766C53.2925 3.06549 52.9799 2.69766 52.6204 2.49419C52.2609 2.29071 51.8936 2.18897 51.5185 2.18897C51.1434 2.18897 50.7761 2.29071 50.4166 2.49419C50.0571 2.69766 49.7445 3.06549 49.4788 3.59766C49.2131 4.12984 48.9982 4.84984 48.8341 5.75766C48.6699 6.66549 48.5879 7.82375 48.5879 9.23245C48.5879 10.6411 48.6699 11.7994 48.8341 12.7072C48.9982 13.6151 49.2131 14.3351 49.4788 14.8672C49.7445 15.3994 50.0571 15.7672 50.4166 15.9707C50.7761 16.1742 51.1434 16.2759 51.5185 16.2759C51.8936 16.2759 52.2609 16.1742 52.6204 15.9707C52.9799 15.7672 53.2925 15.3994 53.5582 14.8672C53.8239 14.3351 54.0388 13.6151 54.2029 12.7072C54.367 11.7994 54.4491 10.6411 54.4491 9.23245C54.4491 7.82375 54.367 6.66549 54.2029 5.75766ZM41.5545 9.9368H36.6311V17.4498H34.521V1.01506H36.6311V8.29332H41.5545V1.01506H43.6645V17.4498H41.5545V9.9368ZM30.419 17.4498L27.4884 10.4064L24.5578 17.4498H22.4478L25.9645 8.99766L22.7994 1.01506H24.9095L27.4884 7.58897L30.0673 1.01506H32.1773L29.0123 8.99766L32.529 17.4498H30.419ZM13.1871 1.01506H21.1583V2.65853H15.2971V8.05853H20.4549V9.70201H15.2971V15.8064H21.1583V17.4498H13.1871V1.01506ZM7.56032 17.4498H5.45029V2.65853H1.69913V1.01506H11.3115V2.65853H7.56032V17.4498Z" fill="white"/>
</svg>
